<svg xmlns="http://www.w3.org/2000/svg" viewBox="0 0 512 512"><defs><style>.cls-1{fill:#721011;}.cls-2{fill:#b9b9b9;}</style></defs><title>double</title><g id="_2" data-name="2"><circle class="cls-1" cx="256" cy="256" r="256"/><path class="cls-2" d="M324.2,281.72c-78.87,0-102.87,56.58-102.87,56.58v29.14H427.07V338.3S403.07,281.72,324.2,281.72ZM272.76,196c0-29.15,22.29-51.43,51.44-51.43s51.43,22.28,51.43,51.43-22.28,51.44-51.43,51.44S272.76,225.14,272.76,196Z"/><path class="cls-2" d="M80.93,371.44v-34l.32-.75c.26-.61,6.54-15.13,22.88-29.71,15-13.37,41.67-29.3,83.67-29.3s68.69,15.93,83.68,29.3c16.34,14.58,22.62,29.1,22.88,29.71l.31.75v34Zm106.87-120a54.52,54.52,0,1,1,39.48-16A55.29,55.29,0,0,1,187.8,251.43Z"/><path class="cls-1" d="M187.8,144.56c29.15,0,51.44,22.28,51.44,51.43S217,247.43,187.8,247.43,136.37,225.14,136.37,196s22.28-51.43,51.43-51.43m0,137.16c78.87,0,102.87,56.58,102.87,56.58v29.14H84.93V338.3s24-56.58,102.87-56.58m0-145.16a58.51,58.51,0,1,0,42.31,17.13,59.23,59.23,0,0,0-42.31-17.13Zm0,137.16c-43.26,0-70.83,16.49-86.33,30.32-17,15.16-23.63,30.49-23.9,31.13l-.64,1.5v38.77H298.67V336.67l-.63-1.5c-.28-.64-6.9-16-23.9-31.13-15.51-13.83-43.08-30.32-86.34-30.32Z"/></g></svg>