<svg id="_3_" data-name="3+" xmlns="http://www.w3.org/2000/svg" xmlns:xlink="http://www.w3.org/1999/xlink" viewBox="0 0 512 512"><defs><style>.cls-1{fill:none;}.cls-2{fill:#721011;}.cls-3{clip-path:url(#clip-path);}.cls-4{fill:#b9b9b9;}</style><clipPath id="clip-path"><rect class="cls-1" x="34.04" y="34.04" width="443.92" height="443.92"/></clipPath></defs><title>multiple</title><circle class="cls-2" cx="256" cy="256" r="256"/><g class="cls-3"><path class="cls-4" d="M256,293c-85.08,0-111,61-111,61v31.45H367V354S341.08,293,256,293Zm-55.49-92.48c0-31.44,24.05-55.49,55.49-55.49s55.49,24,55.49,55.49S287.44,256,256,256,200.51,232,200.51,200.51Z"/></g><g class="cls-3"><circle cx="376.23" cy="191.26" r="46.24"/></g><g class="cls-3"><path d="M376.23,274.5c-22.2,0-38.84,5.55-51.79,14.79,42.54,20.35,59.19,55.49,59.19,59.19v1.85h75.83v-24C459.46,324.44,439.12,274.5,376.23,274.5Z"/></g><g class="cls-3"><circle class="cls-4" cx="376.23" cy="191.26" r="46.24"/></g><g class="cls-3"><path class="cls-4" d="M376.23,274.5c-22.2,0-38.84,5.55-51.79,14.79,42.54,20.35,59.19,55.49,59.19,59.19v1.85h75.83v-24C459.46,324.44,439.12,274.5,376.23,274.5Z"/></g><g class="cls-3"><circle class="cls-4" cx="135.77" cy="191.26" r="46.24"/></g><g class="cls-3"><path class="cls-4" d="M135.77,274.5c22.2,0,38.84,5.55,51.79,14.79-42.54,20.35-59.19,55.49-59.19,59.19v1.85H52.54v-24C52.54,324.44,72.88,274.5,135.77,274.5Z"/></g></svg>